<svg xmlns="http://www.w3.org/2000/svg">
    <symbol id="icon12" viewBox="0 0 32 32">
        <path
            d="M18 18.15H18.15V18V15.15H19.85V18C19.85 19.0172 19.0172 19.85 18 19.85H6C4.98284 19.85 4.15 19.0172 4.15 18V15.15H5.85V18V18.15H6H18ZM12.85 7.83V15.85H11.15V7.83V7.46886L10.8941 7.72373L8.4102 10.1981L7.21213 9L12 4.21213L16.7879 9L15.5898 10.1981L13.1059 7.72373L12.85 7.46886V7.83Z"
            fill="#0076F5" stroke="white" stroke-width="0.3" />
    </symbol>
    <symbol id="icon6" viewBox="0 0 32 32">
        <path
            d="M18 17.1632L13.5307 12.6938C14.6047 11.4045 15.1402 9.75068 15.026 8.07649C14.9117 6.40231 14.1564 4.83663 12.9171 3.70516C11.6778 2.5737 10.0501 1.96357 8.37243 2.00168C6.69478 2.0398 5.09641 2.72324 3.90983 3.90983C2.72324 5.09641 2.0398 6.69478 2.00168 8.37243C1.96357 10.0501 2.5737 11.6778 3.70516 12.9171C4.83663 14.1564 6.40231 14.9117 8.07649 15.026C9.75068 15.1402 11.4045 14.6047 12.6938 13.5307L17.1632 18L18 17.1632ZM3.20478 8.53106C3.20478 7.47762 3.51716 6.44784 4.10242 5.57194C4.68768 4.69604 5.51953 4.01335 6.49278 3.61022C7.46603 3.20709 8.53697 3.10161 9.57017 3.30712C10.6034 3.51264 11.5524 4.01992 12.2973 4.76481C13.0422 5.50971 13.5495 6.45876 13.755 7.49195C13.9605 8.52515 13.855 9.59609 13.4519 10.5693C13.0488 11.5426 12.3661 12.3744 11.4902 12.9597C10.6143 13.545 9.5845 13.8573 8.53106 13.8573C7.11892 13.8558 5.76507 13.2941 4.76654 12.2956C3.76801 11.297 3.20635 9.9432 3.20478 8.53106Z"
            fill="#BBBBBB" />
    </symbol>
    <symbol id="icon13" viewBox="0 0 32 32">
            <path
                d="M10.5714 6C10.651 6 10.729 6.02069 10.7967 6.05974C10.8644 6.09879 10.9192 6.15467 10.9548 6.22111C10.9903 6.28756 11.0054 6.36194 10.9983 6.43592C10.9911 6.50991 10.962 6.58057 10.9143 6.64L8.34286 9.84C8.30294 9.88968 8.25117 9.93 8.19166 9.95777C8.13215 9.98554 8.06653 10 8 10C7.93347 10 7.86785 9.98554 7.80834 9.95777C7.74883 9.93 7.69706 9.88968 7.65714 9.84L5.08572 6.64C5.03796 6.58057 5.00888 6.50991 5.00173 6.43592C4.99458 6.36194 5.00965 6.28756 5.04525 6.22112C5.08084 6.15467 5.13555 6.09879 5.20326 6.05974C5.27096 6.02069 5.34898 6 5.42857 6L10.5714 6Z"
                fill="#0076F5" />
      

    </symbol>
    <symbol id="icon14" viewBox="0 0 32 32">
    <svg width="6" height="4" viewBox="0 0 6 4" fill="none" xmlns="http://www.w3.org/2000/svg">
        <path d="M5.57143 3.74669e-08C5.65102 3.05089e-08 5.72904 0.0206857 5.79674 0.0597396C5.86445 0.0987935 5.91916 0.154672 5.95475 0.221115C5.99035 0.287557 6.00542 0.361938 5.99827 0.435922C5.99112 0.509907 5.96204 0.580572 5.91429 0.64L3.34286 3.84C3.30294 3.88968 3.25117 3.93 3.19166 3.95777C3.13215 3.98554 3.06653 4 3 4C2.93347 4 2.86785 3.98554 2.80834 3.95777C2.74883 3.93 2.69706 3.88968 2.65714 3.84L0.085715 0.640001C0.0379607 0.580573 0.00887936 0.509907 0.00173156 0.435923C-0.00541623 0.361938 0.00965229 0.287557 0.0452463 0.221115C0.0808403 0.154673 0.135554 0.098794 0.203258 0.0597401C0.270962 0.0206862 0.348981 4.94028e-07 0.428572 4.8707e-07L5.57143 3.74669e-08Z" fill="#747474"/>
        </svg>
        
    </symbol>
</svg>
    