<svg width="10" height="8" viewBox="0 0 6 4" fill="none" xmlns="http://www.w3.org/2000/svg">
    <path d="M0.42845 4C0.348859 4 0.27084 3.97931 0.203136 3.94026C0.135432 3.90121 0.0807177 3.84533 0.0451236 3.77889C0.00952946 3.71244 -0.00553784 3.63806 0.00160986 3.56408C0.00875756 3.49009 0.0378378 3.41943 0.0855923 3.36L2.65702 0.16C2.69694 0.110322 2.74871 0.0700002 2.80821 0.0422291C2.86772 0.014458 2.93334 0 2.99988 0C3.06641 0 3.13203 0.014458 3.19154 0.0422291C3.25105 0.0700002 3.30281 0.110322 3.34273 0.16L5.91416 3.36C5.96192 3.41943 5.991 3.49009 5.99815 3.56408C6.00529 3.63806 5.99023 3.71244 5.95463 3.77889C5.91904 3.84533 5.86432 3.90121 5.79662 3.94026C5.72892 3.97931 5.6509 4 5.57131 4L0.42845 4Z" fill="#404040"/>
    </svg>
    