<svg xmlns="http://www.w3.org/2000/svg">
    <symbol id="icon7" viewBox="0 0 32 32">
        <path
            d="M0 4C0 1.79086 1.79086 0 4 0H28C30.2091 0 32 1.79086 32 4V28C32 30.2091 30.2091 32 28 32H4C1.79086 32 0 30.2091 0 28V4Z"
            fill="white"
        />
        <path
            d="M26.6983 15.8753H24.0001H23.8751V16.0003C23.8751 20.3513 20.3511 23.8753 16.0001 23.8753C14.511 23.8753 13.1225 23.455 11.94 22.7372L13.2231 21.4541C14.0523 21.8864 15.0027 22.1253 16.0001 22.1253C19.3791 22.1253 22.1251 19.3794 22.1251 16.0003V15.8753H22.0001H19.3019L23.0001 12.1771L26.6983 15.8753ZM9.87509 16.0003V16.1253H10.0001H12.6983L9.00009 19.8236L5.30187 16.1253H8.00009H8.12509V16.0003C8.12509 11.6494 11.6491 8.12534 16.0001 8.12534C17.4891 8.12534 18.8776 8.54569 20.0602 9.26343L18.7771 10.5465C17.9479 10.1143 16.9975 9.87534 16.0001 9.87534C12.6211 9.87534 9.87509 12.6213 9.87509 16.0003Z"
            fill="#0076F5"
            stroke="white"
            stroke-width="0.25"
        />
    </symbol>
    <symbol id="icon8" viewBox="0 0 32 32">
        <path
            d="M0 4C0 1.79086 1.79086 0 4 0H28C30.2091 0 32 1.79086 32 4V28C32 30.2091 30.2091 32 28 32H4C1.79086 32 0 30.2091 0 28V4Z"
            fill="white"
        />
        <path
            d="M9.75 22.1V22.25H9.9H22.1H22.25V22.1V21C22.25 20.8629 22.1695 20.7345 22.071 20.6255C21.9682 20.5116 21.8233 20.3943 21.6478 20.2771C21.296 20.0423 20.8012 19.7951 20.2177 19.57C19.0507 19.1199 17.5072 18.75 16 18.75C14.4928 18.75 12.9493 19.1199 11.7823 19.57C11.1988 19.7951 10.704 20.0423 10.3522 20.2771C10.1767 20.3943 10.0318 20.5116 9.92898 20.6255C9.83052 20.7345 9.75 20.8629 9.75 21V22.1ZM16 8.15C17.0211 8.15 18.0003 8.55562 18.7224 9.27764C19.4444 9.99965 19.85 10.9789 19.85 12C19.85 13.0211 19.4444 14.0003 18.7224 14.7224C18.0003 15.4444 17.0211 15.85 16 15.85C14.9789 15.85 13.9997 15.4444 13.2776 14.7224C12.5556 14.0003 12.15 13.0211 12.15 12C12.15 10.9789 12.5556 9.99965 13.2776 9.27764C13.9997 8.55562 14.9789 8.15 16 8.15ZM16 9.85C15.4298 9.85 14.8829 10.0765 14.4797 10.4797C14.0765 10.8829 13.85 11.4298 13.85 12C13.85 12.5702 14.0765 13.1171 14.4797 13.5203C14.8829 13.9235 15.4298 14.15 16 14.15C16.5702 14.15 17.1171 13.9235 17.5203 13.5203C17.9235 13.1171 18.15 12.5702 18.15 12C18.15 11.4298 17.9235 10.8829 17.5203 10.4797C17.1171 10.0765 16.5702 9.85 16 9.85ZM16 17.15C17.3164 17.15 19.2975 17.479 20.9456 18.138C21.7695 18.4675 22.5008 18.8757 23.0237 19.3588C23.5455 19.8408 23.85 20.3874 23.85 21V23.85H8.15V21C8.15 20.3874 8.45449 19.8408 8.97632 19.3588C9.49922 18.8757 10.2305 18.4675 11.0544 18.138C12.7025 17.479 14.6836 17.15 16 17.15Z"
            fill="#0076F5"
            stroke="white"
            stroke-width="0.3"
        />
    </symbol>
    <symbol id="icon9" viewBox="0 0 32 32">
        <mask id="mask0_19_740" style="mask-type:alpha" maskUnits="userSpaceOnUse" x="0" y="0"
            width="20" height="21">
            <rect y="0.5" width="20" height="20" fill="#D9D9D9" />
        </mask>
        <g mask="url(#mask0_19_740)">
            <path
                d="M16.287 5.92L9.7585 12.3935L9.65108 12.5L9.7585 12.6065L16.287 19.08L15.0679 20.2888L7.21303 12.5L15.0679 4.71124L16.287 5.92Z"
                fill="#747474" stroke="white" stroke-width="0.3" />
        </g>
    </symbol>
    <symbol id="icon10" viewBox="0 0 32 32">
        <mask id="mask0_19_749" style="mask-type:alpha" maskUnits="userSpaceOnUse" x="0" y="0"
            width="20" height="21">
            <rect y="0.5" width="20" height="20" fill="#D9D9D9" />
        </mask>
        <g mask="url(#mask0_19_749)">
            <path
                d="M7.21303 5.92L13.7415 12.3935L13.8489 12.5L13.7415 12.6065L7.21304 19.08L8.43206 20.2888L16.287 12.5L8.43206 4.71124L7.21303 5.92Z"
                fill="#747474" stroke="white" stroke-width="0.3" />
        </g>
    </symbol>
</svg>