<svg xmlns="http://www.w3.org/2000/svg"> <!-- Добавлено свойство style для
    скрытия SVG -->
    <symbol id="icon1" viewBox="0 0 32 32">
        <!-- Контент первой иконки -->
        <mask
            id="mask0_1_2635"
            style="mask-type: alpha"
            maskUnits="userSpaceOnUse"
            x="0"
            y="0"
            width="24"
            height="24"
        >
            <rect width="24" height="24" fill="#D9D9D9" />
        </mask>
        <g mask="url(#mask0_1_2635)">
            <path
                d="M7.825 12.9H7.58358L7.75429 13.0707L13.283 18.5994L12.0006 19.8592L4.14142 12L12.0006 4.1408L13.283 5.40063L7.75429 10.9293L7.58358 11.1H7.825L19.9 11.1V12.9L7.825 12.9Z"
                fill="#747474"
                stroke="white"
                stroke-width="0.2"
            />
        </g>
    </symbol>
    <symbol id="icon2" viewBox="0 0 32 32">
        <!-- Контент второй иконки -->
        <mask
            id="mask0_41_159"
            style="mask-type: alpha"
            maskUnits="userSpaceOnUse"
            x="0"
            y="0"
            width="20"
            height="20"
        >
            <rect width="20" height="20" fill="#D9D9D9" />
        </mask>
        <g mask="url(#mask0_41_159)">
            <path
                d="M11.6979 10.3732L11.6534 10.4414L11.7112 10.4987L13.1653 11.9428L12.5114 12.5626L11.0893 11.116L11.0338 11.0595L10.9661 11.1006C10.7546 11.229 10.5413 11.3246 10.326 11.3881C10.1118 11.4514 9.88198 11.4833 9.63618 11.4833C8.97165 11.4833 8.39953 11.25 7.91487 10.7803C7.43157 10.3119 7.19073 9.7391 7.19073 9.05556C7.19073 8.37201 7.43157 7.79921 7.91487 7.33084C8.39953 6.86114 8.97165 6.62778 9.63618 6.62778C10.3007 6.62778 10.8728 6.86114 11.3575 7.33084C11.8408 7.79921 12.0816 8.37201 12.0816 9.05556C12.0816 9.29944 12.0495 9.53072 11.9856 9.74979C11.9218 9.96884 11.826 10.1766 11.6979 10.3732ZM4.08164 13.3889V13.4889H4.18164H15.818H15.918V13.3889V5.44444V5.34444H15.818H4.18164H4.08164V5.44444V13.3889ZM8.53844 10.1467C8.84195 10.448 9.20967 10.6 9.63618 10.6C10.0627 10.6 10.4304 10.448 10.7339 10.1467C11.0374 9.84523 11.1907 9.47974 11.1907 9.05556C11.1907 8.63068 11.0339 8.26496 10.7241 7.96372C10.4155 7.66363 10.0514 7.51111 9.63618 7.51111C9.20967 7.51111 8.84195 7.66306 8.53844 7.96446C8.23492 8.26588 8.08164 8.63137 8.08164 9.05556C8.08164 9.47974 8.23492 9.84523 8.53844 10.1467ZM4.18164 14.7333C3.80814 14.7333 3.49102 14.6024 3.22483 14.3381C2.95866 14.0738 2.82709 13.7592 2.82709 13.3889V5.44444C2.82709 5.07418 2.95866 4.75958 3.22483 4.49526C3.49102 4.23092 3.80814 4.1 4.18164 4.1H15.818C16.1915 4.1 16.5086 4.23092 16.7748 4.49526C17.041 4.75958 17.1725 5.07418 17.1725 5.44444V13.3889C17.1725 13.7592 17.041 14.0738 16.7748 14.3381C16.5086 14.6024 16.1915 14.7333 15.818 14.7333H4.18164ZM2.09982 16.9V15.6556H17.8998V16.9H2.09982Z"
                fill="#747474"
                stroke="white"
                stroke-width="0.2"
            />
        </g>

    </symbol>
    <symbol id="icon3" viewBox="0 0 32 32">

        <path
            d="M11.2658 2.14609C10.7865 2.2411 10.3391 2.45592 9.96529 2.77052C9.59148 3.08512 9.30341 3.48926 9.12797 3.94526L9.12735 3.94604C8.9506 4.40955 8.896 4.91072 8.96877 5.40142C9.04154 5.89212 9.23926 6.35587 9.54292 6.74813L7.58176 12.1915C7.10076 12.2929 6.65352 12.5152 6.28224 12.8373C5.91096 13.1595 5.62788 13.571 5.45972 14.0329C5.29002 14.4999 5.24325 15.0027 5.32391 15.493C5.40456 15.9833 5.60993 16.4446 5.92029 16.8326L5.9255 16.8385C6.28123 17.268 6.9797 17.1537 7.17426 16.6191L7.71616 15.1321L8.45152 15.3997L7.90983 16.8862C7.71355 17.4255 8.18259 17.958 8.73203 17.8543L8.73523 17.8538C9.21449 17.7588 9.66188 17.544 10.0357 17.2294C10.4095 16.9148 10.6976 16.5107 10.873 16.0547L10.8736 16.0539C11.0489 15.5954 11.1044 15.0999 11.0351 14.614C10.9657 14.1281 10.7736 13.6679 10.4771 13.2768L12.4526 7.80116C12.9269 7.69574 13.367 7.4724 13.732 7.15181C14.0971 6.83122 14.3754 6.42373 14.5413 5.96704C14.711 5.50004 14.7577 4.99724 14.6771 4.50695C14.5964 4.01665 14.3911 3.55533 14.0807 3.1673L14.0755 3.16139C13.7198 2.73192 13.0213 2.84626 12.8267 3.38079L12.2848 4.86784L11.5491 4.60038L12.0912 3.11374C12.2874 2.57447 11.8184 2.04188 11.2689 2.14558L11.2658 2.14609ZM11.1507 3.09719L10.6593 4.44642C10.6261 4.53636 10.611 4.63199 10.615 4.72778C10.6189 4.82358 10.6418 4.91763 10.6824 5.00453C10.7229 5.09142 10.7802 5.16942 10.851 5.23403C10.9219 5.29864 11.0048 5.34858 11.0951 5.38095L12.1311 5.75803C12.221 5.79117 12.3166 5.80618 12.4124 5.80219C12.5082 5.7982 12.6022 5.77529 12.6891 5.73477C12.776 5.69426 12.854 5.63695 12.9186 5.56615C12.9832 5.49535 13.0332 5.41245 13.0656 5.32225L13.5574 3.97282C13.7234 4.25949 13.8158 4.58284 13.8263 4.91394C13.8368 5.24505 13.765 5.57359 13.6175 5.87019C13.47 6.16679 13.2512 6.4222 12.9808 6.61357C12.7104 6.80495 12.3968 6.92633 12.068 6.96685C11.9865 6.97693 11.9095 7.00937 11.8453 7.06058C11.7811 7.11179 11.7324 7.17977 11.7045 7.25697L9.55576 13.214C9.52825 13.2902 9.5221 13.3725 9.53797 13.452C9.55385 13.5315 9.59115 13.6051 9.64584 13.6649C9.89796 13.9389 10.0688 14.2777 10.1391 14.6433C10.2095 15.0089 10.1766 15.3869 10.0442 15.735C9.94083 16.0039 9.78067 16.2473 9.57467 16.4487C9.36867 16.6502 9.12168 16.8048 8.85051 16.9021L9.34171 15.5535C9.37492 15.4636 9.38997 15.3679 9.38601 15.2721C9.38205 15.1763 9.35915 15.0823 9.31863 14.9954C9.27811 14.9085 9.22078 14.8305 9.14994 14.7659C9.07911 14.7013 8.99618 14.6513 8.90593 14.619L7.87052 14.2421C7.78058 14.209 7.68496 14.194 7.58918 14.1979C7.49341 14.2019 7.39937 14.2249 7.3125 14.2654C7.22562 14.3059 7.14762 14.3632 7.083 14.434C7.01838 14.5048 6.96842 14.5877 6.93599 14.6779L6.44439 16.0267C6.27729 15.7381 6.18484 15.4124 6.17539 15.0791C6.16595 14.7457 6.23982 14.4153 6.39031 14.1177C6.5408 13.8201 6.76315 13.5648 7.03723 13.3748C7.3113 13.1849 7.62844 13.0663 7.95992 13.0298C8.04264 13.0208 8.12116 12.9887 8.18654 12.9372C8.25193 12.8858 8.30155 12.817 8.32976 12.7387L10.4661 6.80756C10.4938 6.7305 10.4996 6.6473 10.483 6.56712C10.4664 6.48695 10.428 6.41293 10.3719 6.35322C10.1136 6.07922 9.93769 5.73799 9.86433 5.36863C9.79097 4.99927 9.82314 4.61671 9.95715 4.26478C10.0606 3.9958 10.2208 3.75228 10.4269 3.55082C10.6329 3.34936 10.88 3.19471 11.1513 3.0974"
            fill="#404040"
        />
        <path
            d="M3.62829 6.63184L3.66417 6.59488L3.70005 6.63184L4.20253 7.14955L4.23632 7.18437L4.20253 7.2192L1.90795 9.58333L4.20253 11.9475L4.23632 11.9823L4.20253 12.0171L3.70005 12.5348L3.66417 12.5718L3.62829 12.5348L0.797434 9.61816L0.763635 9.58333L0.797434 9.54851L3.62829 6.63184Z"
            fill="#404040"
            stroke="#404040"
            stroke-width="0.1"
        />
        <path
            d="M16.3717 12.5348L16.3358 12.5718L16.3 12.5348L15.7975 12.0171L15.7637 11.9823L15.7975 11.9475L18.0921 9.58334L15.7975 7.2192L15.7637 7.18438L15.7975 7.14956L16.3 6.63185L16.3358 6.59488L16.3717 6.63185L19.2026 9.54851L19.2364 9.58334L19.2026 9.61816L16.3717 12.5348Z"
            fill="#404040"
            stroke="#404040"
            stroke-width="0.1"
        />
    </symbol>
    <symbol id="icon4" viewBox="0 0 32 32">

        <path
            d="M5.42845 10C5.34886 10 5.27084 9.97931 5.20314 9.94026C5.13543 9.90121 5.08072 9.84533 5.04512 9.77889C5.00953 9.71244 4.99446 9.63806 5.00161 9.56408C5.00876 9.49009 5.03784 9.41943 5.08559 9.36L7.65702 6.16C7.69694 6.11032 7.74871 6.07 7.80821 6.04223C7.86772 6.01446 7.93334 6 7.99988 6C8.06641 6 8.13203 6.01446 8.19154 6.04223C8.25105 6.07 8.30281 6.11032 8.34273 6.16L10.9142 9.36C10.9619 9.41943 10.991 9.49009 10.9981 9.56408C11.0053 9.63806 10.9902 9.71244 10.9546 9.77889C10.919 9.84533 10.8643 9.90121 10.7966 9.94026C10.7289 9.97931 10.6509 10 10.5713 10H5.42845Z"
            fill="#404040"
        />
    </symbol>
    <symbol id="icon5" viewBox="0 0 52 52">
        <path
            d="M10.5714 6C10.651 6 10.729 6.02069 10.7967 6.05974C10.8644 6.09879 10.9192 6.15467 10.9548 6.22111C10.9903 6.28756 11.0054 6.36194 10.9983 6.43592C10.9911 6.50991 10.962 6.58057 10.9143 6.64L8.34286 9.84C8.30294 9.88968 8.25117 9.93 8.19166 9.95777C8.13215 9.98554 8.06653 10 8 10C7.93347 10 7.86785 9.98554 7.80834 9.95777C7.74883 9.93 7.69706 9.88968 7.65714 9.84L5.08572 6.64C5.03796 6.58057 5.00888 6.50991 5.00173 6.43592C4.99458 6.36194 5.00965 6.28756 5.04525 6.22112C5.08084 6.15467 5.13555 6.09879 5.20326 6.05974C5.27096 6.02069 5.34898 6 5.42857 6L10.5714 6Z"
            fill="#404040"
        />
    </symbol>
   
</svg>